<!DOCTYPE svg PUBLIC "-//W3C//DTD SVG 1.1//EN" "http://www.w3.org/Graphics/SVG/1.1/DTD/svg11.dtd">

<!-- Uploaded to: SVG Repo, www.svgrepo.com, Transformed by: SVG Repo Mixer Tools -->
<svg width="800px" height="800px" viewBox="0 0 24 24" fill="none" xmlns="http://www.w3.org/2000/svg" stroke="#000000" stroke-width="1.5">

<g id="SVGRepo_bgCarrier" stroke-width="0"/>

<g id="SVGRepo_tracerCarrier" stroke-linecap="round" stroke-linejoin="round" stroke="#ffffff" stroke-width="0">

<path d="M5.6 3A2.6 2.6 0 0 0 3 5.6v2.8A2.6 2.6 0 0 0 5.6 11h2.8A2.6 2.6 0 0 0 11 8.4V5.6A2.6 2.6 0 0 0 8.4 3H5.6ZM5.6 13A2.6 2.6 0 0 0 3 15.6v2.8A2.6 2.6 0 0 0 5.6 21h2.8a2.6 2.6 0 0 0 2.6-2.6v-2.8A2.6 2.6 0 0 0 8.4 13H5.6ZM15.6 3A2.6 2.6 0 0 0 13 5.6v2.8a2.6 2.6 0 0 0 2.6 2.6h2.8A2.6 2.6 0 0 0 21 8.4V5.6A2.6 2.6 0 0 0 18.4 3h-2.8ZM15.6 13a2.6 2.6 0 0 0-2.6 2.6v2.8a2.6 2.6 0 0 0 2.6 2.6h2.8a2.6 2.6 0 0 0 2.6-2.6v-2.8a2.6 2.6 0 0 0-2.6-2.6h-2.8Z" fill="#ffffff"/>

</g>

<g id="SVGRepo_iconCarrier">

<path d="M5.6 3A2.6 2.6 0 0 0 3 5.6v2.8A2.6 2.6 0 0 0 5.6 11h2.8A2.6 2.6 0 0 0 11 8.4V5.6A2.6 2.6 0 0 0 8.4 3H5.6ZM5.6 13A2.6 2.6 0 0 0 3 15.6v2.8A2.6 2.6 0 0 0 5.6 21h2.8a2.6 2.6 0 0 0 2.6-2.6v-2.8A2.6 2.6 0 0 0 8.4 13H5.6ZM15.6 3A2.6 2.6 0 0 0 13 5.6v2.8a2.6 2.6 0 0 0 2.6 2.6h2.8A2.6 2.6 0 0 0 21 8.4V5.6A2.6 2.6 0 0 0 18.4 3h-2.8ZM15.6 13a2.6 2.6 0 0 0-2.6 2.6v2.8a2.6 2.6 0 0 0 2.6 2.6h2.8a2.6 2.6 0 0 0 2.6-2.6v-2.8a2.6 2.6 0 0 0-2.6-2.6h-2.8Z" fill="#ffffff"/>

</g>

</svg>