<?xml version="1.0" encoding="utf-8"?>
<!-- Uploaded to: SVG Repo, www.svgrepo.com, Generator: SVG Repo Mixer Tools -->
<svg width="800px" height="800px" viewBox="0 0 960 960" fill="none" xmlns="http://www.w3.org/2000/svg">
<g clip-path="url(#clip0_1313_6342)">
<path d="M152.546 359.271C110.916 320.63 188.881 298.679 214.307 281.98C237.189 270.561 276.924 253.085 289.053 287.507C355.179 254.398 422.271 223.731 488.937 191.769C494.027 189.367 496.705 187.331 496.224 181.122C496.778 151.941 538.097 139.685 557.369 159.918C558.707 161.264 562.358 161.286 564.565 160.648C662.409 125.391 726.413 117.646 772.597 226.754C797.313 282.353 822.645 337.733 845.322 394.172C874.697 466.353 902.019 563.082 817.005 608.207C728.14 662.167 628.096 692.114 532.124 730.394C452.337 752.812 331.604 849.22 263.373 764.573C224.577 709.401 192.978 649.07 159.472 590.577C125.081 522.603 72.2931 414.471 152.546 359.271ZM753.78 278.53C729.573 233.027 708.317 157.056 641.421 179.634C550.345 204.035 466.647 249.104 380.897 287.325C315.614 318.818 251.113 352.276 187.933 387.844C161.385 403.065 151.434 424.167 157.381 454.07C163.545 482.667 171.793 512.556 184.55 538.713C228.815 519.91 272.132 501.592 315.306 482.94C324.147 476.866 318.654 463.555 320.886 454.615C350.404 288.604 503.033 227.151 636.927 330.347C676.897 313.577 714.865 298.891 753.78 278.53ZM356.437 479.951C361.213 569.87 464.651 635.829 546.909 594.287C592.353 571.263 632.117 526.09 640.855 475.246C644.46 413.564 609.65 356.004 553.581 331.196C453.5 281.267 361.609 384.167 356.437 479.951Z" fill="#000000"/>
<path d="M649.407 761.521C648.093 738.644 670.611 728.982 684.437 743.306C709.505 783.025 726.436 828.008 748.273 869.713C763.557 896.614 732.269 924.821 709.794 900.487C686.695 857.149 665.42 807.577 649.407 761.521Z" fill="#000000"/>
<path d="M249.863 81.8695C252.264 53.243 286.224 50.4055 297.549 74.8648C308.111 95.1219 318.392 115.535 328.317 136.113C335.371 150.738 333.331 161.257 323.266 167.065C313.731 172.568 303.533 169.132 294.454 156.072C279.125 131.689 258.904 109.547 249.863 81.8695Z" fill="#000000"/>
<path d="M375.48 850.609C371.736 864.64 365.762 884.876 359.489 899.284C347.947 924.693 311.608 912.11 317.54 884.948C322.321 869.076 327.78 853.321 334.301 838.088C344.934 815.547 377.089 824.112 375.48 850.609Z" fill="#000000"/>
<path d="M60.563 377.146C39.1288 370.567 -5.76104 371.101 1.96587 338.306C13.0037 306.095 51.1473 330.128 72.491 337.56C93.227 347.701 83.4775 376.88 60.563 377.146Z" fill="#000000"/>
<path d="M909.661 597.338C922.19 599.394 936.743 604.179 949.506 612.896C970.725 627.074 952.716 662.687 928.788 654.48C916.747 650.636 904.958 645.5 893.801 639.539C872.436 626.991 883.25 595.274 909.661 597.338Z" fill="#000000"/>
<path d="M671.809 78.9825C672.847 61.4636 681.238 41.8698 701.889 47.3974C725.25 54.2647 717.133 80.7203 709.101 97.0294C705.045 105.786 695.752 109.276 686.792 106.97C674.728 104.466 671.628 90.64 672.783 79.1898C672.459 79.1211 672.134 79.0523 671.809 78.9825Z" fill="#000000"/>
<path d="M753.782 278.542C714.892 298.894 676.892 313.594 636.929 330.353C502.967 227.098 350.344 288.742 320.884 454.628C318.604 463.588 324.17 476.87 315.307 482.952C272.134 501.603 228.816 519.922 184.551 538.724C171.799 512.556 163.553 482.681 157.382 454.081C151.437 424.178 161.387 403.076 187.935 387.855C251.115 352.286 315.616 318.828 380.899 287.338C466.649 249.114 550.346 204.047 641.424 179.641C708.314 157.082 729.563 233.03 753.782 278.542ZM314.054 426.779C313.848 391.287 296.865 370.702 259.854 377.974C230.974 386.137 176.311 404.072 169.404 436.5C164.442 456.674 168.375 476.31 175.017 495.422C180.873 513.248 209.179 505.754 222.807 503.079C260.291 488.069 317.231 478.123 314.054 426.779Z" fill="white"/>
<path d="M356.434 479.953C361.569 384.201 453.533 281.23 553.581 331.201C609.664 356.019 644.428 413.556 640.849 475.245C632.128 526.117 592.333 571.233 546.91 594.294C464.662 635.83 361.19 569.872 356.434 479.953ZM379.337 460.587C371.726 598.997 551.362 614.711 596.068 493.553C625.987 430.706 596.857 356.021 528.023 336.283C453.677 312.074 380.849 397.634 379.337 460.587Z" fill="white"/>
<path d="M314.049 426.765C313.973 451.26 304.437 469.923 281.362 479.85C252.181 491.53 223.8 507.866 191.399 506.559C166.757 507.725 164.886 453.672 169.398 436.489C176.251 404.096 230.994 386.111 259.85 377.956C296.808 370.708 313.864 391.232 314.049 426.765ZM208.975 472.596C230.639 466.241 251.488 456.192 272.32 447.288C276.537 445.323 279.315 438.094 280.65 432.762C281.842 428.003 279.982 422.522 279.726 417.347C279.437 411.486 276.31 409.502 270.951 410.664C253.608 414.905 238.345 425.354 222.52 433.329C202.362 442.954 204.447 452.441 208.975 472.596Z" fill="#000000"/>
<path d="M379.341 460.585C380.797 397.648 453.723 312.053 528.032 336.276C596.84 356.044 626.02 430.689 596.068 493.557C551.351 614.697 371.718 599.004 379.341 460.585ZM409.123 440.608C407.705 472.572 445.159 469.799 444.268 440.714C444.748 411.319 482.198 400.592 469.823 382.345C465.9 376.968 458.785 374.812 452.425 378.313C426.928 392.349 410.933 412.973 409.123 440.608Z" fill="#000000"/>
<path d="M208.981 472.602C204.479 452.421 202.352 442.979 222.527 433.336C238.351 425.359 253.613 414.912 270.956 410.668C276.316 409.508 279.443 411.491 279.732 417.352C279.988 422.528 281.848 428.008 280.656 432.768C279.322 438.099 276.544 445.329 272.326 447.292C251.494 456.199 230.645 466.247 208.981 472.602Z" fill="white"/>
<path d="M409.122 440.61C410.932 412.975 426.927 392.352 452.424 378.315C458.784 374.814 465.899 376.969 469.821 382.346C482.237 400.487 444.765 411.333 444.269 440.717C445.168 469.78 407.694 472.589 409.122 440.61Z" fill="white"/>
</g>
<defs>
<clipPath id="clip0_1313_6342">
<rect width="960" height="867.273" fill="white" transform="translate(0 45.8594)"/>
</clipPath>
</defs>
</svg>