<svg id="eyWKtZeR0oX1" xmlns="http://www.w3.org/2000/svg" xmlns:xlink="http://www.w3.org/1999/xlink" viewBox="0 0 24 24" shape-rendering="geometricPrecision" text-rendering="geometricPrecision"><g transform="translate(0 0.11257)"><path d="M12,2c-2.0305,0-3.65097.72578-4.75178,1.98079C6.16397,5.21692,5.66667,6.87057,5.66667,8.6v1.7333c0,.2441-.10951.5376-.39501.9165-.27368.3631-.62896.7036-1.02144,1.0798l-.0665.0638C3.49997,13.0494,3,13.9996,3,15.1333C3,16.67,4.19824,18,5.77778,18h12.44442C19.8018,18,21,16.67,21,15.1333c0-1.1337-.5-2.0839-1.1837-2.7399l-.0665-.0638h-.0001c-.3924-.3762-.7477-.7167-1.0214-1.0798-.2855-.3789-.395-.6724-.395-.9165v-1.7333c0-1.72943-.4973-3.38308-1.5815-4.61921C15.651,2.72578,14.0305,2,12,2Z" clip-rule="evenodd" fill="#fff" fill-rule="evenodd" stroke="#000" stroke-width="2"/><path d="M9.44303,19.1694c.45869-.3076,1.07987-.1851,1.38747.2736.0994.1482.2538.288.4614.3915.2079.1035.4525.1619.7081.1619s.5002-.0584.7081-.1619c.2076-.1035.362-.2433.4614-.3915.3076-.4587.9288-.5812,1.3875-.2736s.5811.9289.2735,1.3876c-.3071.4579-.7361.8213-1.2305,1.0676-.4942.2462-1.0454.3718-1.6.3718s-1.1058-.1256-1.6-.3718c-.49436-.2463-.92342-.6097-1.23054-1.0676-.3076-.4587-.18512-1.0799.27357-1.3876Z" transform="matrix(1 0 0 0.64552 0.000008 8.166736)" clip-rule="evenodd" fill="#fff" fill-rule="evenodd" stroke="#000" stroke-width="2"/></g></svg>
